<?xml version="1.0" encoding="UTF-8"?>
<svg id="_レイヤー_1" data-name="レイヤー_1" xmlns="http://www.w3.org/2000/svg" version="1.1" viewBox="0 0 292 87">
  <!-- Generator: Adobe Illustrator 29.3.1, SVG Export Plug-In . SVG Version: 2.1.0 Build 151)  -->
  <defs>
    <style>
      .st0 {
        fill: #fff;
      }
    </style>
  </defs>
  <g>
    <path class="st0" d="M101.9,56.6c1.6,2,2.4,4.6,2.4,7.6s-.9,5.9-2.7,8c-1.8,2.1-4.3,3.2-7.4,3.2s-5.9-1.2-7.8-3.6c-1.6-2-2.3-4.5-2.3-7.6s.8-5.5,2.4-7.5c1.9-2.5,4.5-3.7,7.7-3.7s5.8,1.2,7.7,3.7ZM88.5,57c-1.3,1.9-1.9,4.3-1.9,7.1s.6,5,1.8,6.9c1.4,2.2,3.4,3.4,5.8,3.4s4-.9,5.4-2.7c1.5-1.9,2.2-4.5,2.2-7.5s-.7-5.6-2.1-7.4c-1.4-1.9-3.2-2.8-5.4-2.8s-4.3,1-5.7,3.1Z"/>
    <path class="st0" d="M109.2,74.8v-.7c1.3,0,2-.3,2.3-.8.2-.3.2-.8.2-1.4v-8.5c0-1-.3-1.6-.7-1.8-.2-.1-.8-.2-1.7-.2v-.7c1.6-.2,3-.5,4.3-.9v3c1.5-1.9,3.2-2.8,5.1-2.8s3.5.7,4.4,2.2c.6,1,.9,2.1.9,3.6v6.1c0,1.1.3,1.7.8,2,.3.1.9.2,1.7.3v.7h-7v-.7c1.3,0,2.1-.3,2.3-.8.1-.3.2-.8.2-1.4v-6.2c0-1.2-.2-2.1-.7-2.9-.6-1.1-1.7-1.7-3-1.7s-3.2,1.1-4.5,3.1v7.7c0,1.1.3,1.7.8,2,.3.1.9.2,1.7.3v.7h-7Z"/>
    <path class="st0" d="M132.3,74.8v-.7c1.3,0,2-.4,2.3-.9.1-.3.2-.8.2-1.5v-15.3c0-1-.2-1.6-.7-1.8-.3-.1-.9-.2-1.7-.2v-.7c1.5-.1,3-.4,4.4-.9v19c0,1.1.3,1.8.8,2,.4.1,1,.3,1.7.3v.7h-7Z"/>
    <path class="st0" d="M144.5,74.8v-.7c1.2,0,1.9-.3,2.2-.7.2-.3.3-.8.3-1.6v-8.5c0-1-.2-1.6-.7-1.8-.3-.2-.8-.2-1.7-.2v-.7c1.5-.1,3-.4,4.4-.9v12.1c0,1.1.2,1.7.7,1.9.3.1.9.3,1.7.3v.7h-7ZM148.8,53.2c.5.3.8.8.8,1.4s-.1.8-.4,1.1c-.3.4-.7.5-1.2.5s-.5,0-.7-.2c-.6-.3-.9-.8-.9-1.4s.2-.9.6-1.2c.3-.3.6-.4,1.1-.4s.5,0,.8.2Z"/>
    <path class="st0" d="M155.4,74.8v-.7c1.3,0,2-.3,2.3-.8.2-.3.2-.8.2-1.4v-8.5c0-1-.3-1.6-.7-1.8-.2-.1-.8-.2-1.7-.2v-.7c1.6-.2,3-.5,4.3-.9v3c1.5-1.9,3.2-2.8,5.1-2.8s3.5.7,4.4,2.2c.6,1,.8,2.1.8,3.6v6.1c0,1.1.3,1.7.8,2,.3.1.9.2,1.7.3v.7h-7v-.7c1.3,0,2.1-.3,2.3-.8.1-.3.2-.8.2-1.4v-6.2c0-1.2-.2-2.1-.7-2.9-.6-1.1-1.7-1.7-3-1.7s-3.2,1.1-4.5,3.1v7.7c0,1.1.3,1.7.8,2,.3.1.9.2,1.7.3v.7h-7Z"/>
    <path class="st0" d="M190.5,71c-1.3,2.9-3.4,4.4-6.5,4.4s-4.2-.8-5.6-2.4c-1.2-1.4-1.8-3.2-1.8-5.3s.5-3.5,1.5-4.8c1.4-2,3.3-3,5.7-3s5,1.3,6.1,3.7c.5,1,.7,2.2.8,3.6h-11.9c0,1.6.2,2.9.7,3.9,1,2.1,2.6,3.1,4.7,3.1s4.1-1.2,5.5-3.7l.6.4ZM188.4,66.3c0-1.4-.4-2.5-1-3.5-.9-1.4-2.1-2.1-3.5-2.1s-2.3.6-3.2,1.7c-.9,1.1-1.5,2.3-1.6,3.9h9.4Z"/>
    <path class="st0" d="M200.3,66.9h.7c.4,2.4,1.2,4.2,2.4,5.4,1.4,1.4,3,2,4.8,2s2-.2,2.8-.6c1.6-.8,2.4-2.1,2.4-3.9s-1.4-3.4-4.2-4.6l-3.8-1.6c-1.4-.6-2.5-1.3-3.3-1.9-1-.9-1.5-2.1-1.5-3.6s.5-2.3,1.4-3.3c1.4-1.3,3.1-1.9,5.2-1.9s3.5.5,4.9,1.5c.3.2.5.3.6.3.4,0,.6-.4.8-1.2h.7v6.3h-.7c-.3-1.5-.9-2.8-1.8-3.8-1.2-1.4-2.7-2-4.4-2s-2.2.3-3.2,1.1c-1.1.8-1.6,1.8-1.6,3.1s1.2,2.8,3.7,3.7l3.7,1.5c3.7,1.5,5.6,3.6,5.6,6.4s-.7,3.3-2.3,4.4c-1.2.8-2.9,1.3-4.9,1.3s-3.7-.5-5.6-1.6c-.3-.2-.6-.3-.8-.3-.4,0-.8.4-1,1.3h-.7v-7.8Z"/>
    <path class="st0" d="M220.4,61.3v-.9c2.4-.4,3.8-1.9,4.4-4.6h.7v4.6h5.2v.9h-5.2v9.6c0,2.2.7,3.3,2.2,3.3s2.5-.7,3.8-2.1l.5.5c-1.5,1.9-3.2,2.8-5,2.8s-3.5-1.5-3.5-4.5v-9.6h-3.1Z"/>
    <path class="st0" d="M249.2,62.1c1.3,1.4,2,3.3,2,5.5s-.6,3.8-1.7,5.2c-1.4,1.7-3.3,2.5-5.6,2.5s-4.1-.8-5.4-2.3c-1.3-1.4-1.9-3.2-1.9-5.4s.8-4.3,2.3-5.8c1.4-1.4,3.1-2,5-2s3.9.7,5.4,2.3ZM239.8,63.2c-.7,1.2-1,2.7-1,4.4s.4,3.3,1.3,4.6c1,1.6,2.3,2.3,3.8,2.3s2.2-.5,3.2-1.5c1.3-1.4,1.9-3.2,1.9-5.4s-.4-3.2-1.1-4.5c-1-1.6-2.2-2.4-3.9-2.4s-3.1.8-4.1,2.5Z"/>
    <path class="st0" d="M256,74.8v-.7c1.2,0,1.9-.3,2.2-.7.2-.3.3-.8.3-1.6v-8.4c0-1-.2-1.6-.7-1.8-.3-.2-.8-.2-1.7-.2v-.7c1.6-.2,3-.5,4.3-.9v3.5c1.6-2.2,3.4-3.3,5.4-3.3s1.2.1,1.6.4c.7.4,1.1,1,1.1,1.7,0,1.1-.5,1.6-1.5,1.6s-1.5-.5-1.5-1.4.1-.7.3-1c-.3-.1-.6-.2-.7-.2-1.7,0-3.2,1.2-4.5,3.5v7.2c0,1,.2,1.7.7,2,.3.2,1,.3,2,.3v.7h-7.1Z"/>
    <path class="st0" d="M287.1,71c-1.3,2.9-3.4,4.4-6.5,4.4s-4.2-.8-5.6-2.4c-1.2-1.4-1.8-3.2-1.8-5.3s.5-3.5,1.5-4.8c1.4-2,3.3-3,5.7-3s5,1.3,6.1,3.7c.5,1,.7,2.2.8,3.6h-11.9c0,1.6.2,2.9.7,3.9,1,2.1,2.6,3.1,4.7,3.1s4.1-1.2,5.5-3.7l.6.4ZM285,66.3c0-1.4-.4-2.5-1-3.5-.9-1.4-2.1-2.1-3.5-2.1s-2.3.6-3.2,1.7c-.9,1.1-1.5,2.3-1.6,3.9h9.4Z"/>
  </g>
  <path class="st0" d="M4.7,4.5h39.8v2.6c-11.6,17.8-17.7,36.1-18.3,55.1-.2,3.4-1.6,5.2-4,5.2s-3.9-1.7-3.9-5c0-11.7,6.7-29.2,20.4-52.6H14.7c-2.8,0-4.9,1.6-6.1,4.7-.7,2-1.4,5.3-1.9,10.1h-2.2V4.5Z"/>
  <path class="st0" d="M31.5,26.8c0-4.8,2.1-9,6.2-12.2,4-3.1,8.9-4.6,14.6-4.6s9.9,1.2,13.5,3.7c4.4,3.1,6.6,7.4,6.6,12.8s-5.1,12.6-15.3,16.4c12.5,5.6,18.6,12.6,18.6,21s-2,9.7-6,13.1c-4.4,3.5-10.4,5.5-18,5.5s-11.9-1.4-16.2-4.3c-5.1-3.4-7.7-8.1-7.7-14.1s6-14.4,18-19.5c-9.6-4.7-14.3-10.7-14.3-17.8ZM48.1,46.7c-9.2,4.4-14,10.1-14,17.3s1.6,7.8,4.8,10.7c3.5,3.1,7.7,4.6,12.5,4.6s8.2-1.4,11.2-4c3.5-2.9,5.2-6.6,5.2-11s-1.8-7.3-5.3-10.4c-2.2-1.9-4.8-3.7-8.1-5.4-3.2-1.7-4.9-2.5-5.4-2.3-.2.1-.5.2-1,.5ZM54.2,41h.3c7.8-3.4,11.7-8.1,11.7-14.5s-1-6.4-3.1-8.8c-2.5-3.1-6.2-4.5-10.8-4.5s-5.7.7-8,2.2c-4,2.6-6,6.5-6,11.2s1.5,6.4,4.7,9c1.5,1.2,3.6,2.6,6.2,3.8,2.7,1.3,4.3,2,4.3,1.9.1-.1.4-.2.8-.3Z"/>
</svg>