<?xml version="1.0" encoding="UTF-8"?>
<svg id="_レイヤー_1" xmlns="http://www.w3.org/2000/svg" version="1.1" xmlns:xlink="http://www.w3.org/1999/xlink" viewBox="0 0 79.4 79.4">
  <!-- Generator: Adobe Illustrator 29.3.1, SVG Export Plug-In . SVG Version: 2.1.0 Build 151)  -->
  <defs>
    <style>
      .st0 {
        fill: #352100;
      }
    </style>
  </defs>
  <path class="st0" d="M37.6,47.8v-6.3c4.5.2,6.7.8,6.7,1.7s-.8,1.1-2.7,1.7v2.9h20.1l3.5-4.2c1.5,1.1,2.7,2.6,3.9,3.9l.6.7-.8,1.3h-25.9c7.7,6,16.9,10.7,27.9,13.7-1.5,1.3-2.6,2.6-3.3,4.2-10.1-3.8-18.6-9.3-25.9-16.7v19.5h-4v-17.4c-7.4,7-16.7,12.3-28,15.6l-.9-1.4c11.1-4.3,19.9-10.1,26.6-17.4H11.1l-.7-1.7h27.1ZM46.7,17.9h-14.4v6.9h-3.8v-6.9H11l-.7-1.7h18.3v-7c4.2,0,6.5.5,6.5,1.5s-.9,1.2-2.7,1.8v3.7h14.4v-6.9c4.3,0,6.5.5,6.5,1.5s-.8,1.3-2.7,2v3.5h11.3l3.4-4.1c1.4,1.1,2.9,2.6,4.5,4.4l-.7,1.4h-18.5v5.6h-3.8v-5.6ZM13.7,27.9c19.1-.5,34.6-2,46.2-4.3,3.2,2,4.9,3.4,4.9,4.1s-.4.6-1.1.6-1.7-.2-3.1-.6c-16.2,1.2-31.6,1.8-46.5,2l-.5-1.8ZM17.6,31.9c7.1,3.2,10.7,6.4,10.7,9.6s-.8,2.7-2.5,2.7-2-.8-2.5-2.4c-1-3.2-3.2-5.9-6.5-8.6l.8-1.3ZM34.2,29.8c5.7,2.6,8.6,5.4,8.6,8.3s-.9,2.6-2.6,2.6-2-.9-2.3-2.6c-.5-2.6-2.1-5-4.7-7.3l.9-1.1ZM47.5,45.3c3.5-4.4,6.5-9.6,9.4-15.5,3.9,1.9,5.9,3.3,5.9,4.2s-.8.9-2.3.9-.8,0-1.1,0c-2.4,3.6-6,7.4-10.8,11.5l-1.2-1.1Z"/>
</svg>